<svg height="512" viewBox="0 0 32 32" width="512" xmlns="http://www.w3.org/2000/svg"><g id="Layer_2" data-name="Layer 2"><path d="m12 30.15a2.79 2.79 0 0 1 -2-.82l-7.33-7.33a2.8 2.8 0 0 1 0-4l15.33-15.33a2.78 2.78 0 0 1 2-.82h7.36a2.8 2.8 0 0 1 2.8 2.8v7.35a2.78 2.78 0 0 1 -.82 2l-15.34 15.33a2.79 2.79 0 0 1 -2 .82zm-.56-2.23a.8.8 0 0 0 1.13 0l15.35-15.35a.79.79 0 0 0 .23-.56v-7.36a.8.8 0 0 0 -.8-.8h-7.35a.79.79 0 0 0 -.56.23l-15.36 15.35a.8.8 0 0 0 0 1.13z"/><circle cx="24.69" cy="7.23" r="1"/></g></svg>