<svg version="1.1" id="Layer_1" xmlns="http://www.w3.org/2000/svg" xmlns:xlink="http://www.w3.org/1999/xlink" x="0px" y="0px"
	 width="100%" viewBox="0 0 512 512" enable-background="new 0 0 512 512" xml:space="preserve">
<path fill="#000000" opacity="1.000000" stroke="none" 
	d="
M36.000000,1.000000 
	C93.687561,1.000000 151.375122,1.000000 209.651489,1.372163 
	C230.555222,5.836509 244.986725,23.985142 246.094925,44.575760 
	C246.557953,53.179028 247.990494,61.735477 249.108902,70.296669 
	C250.329422,79.639572 251.822281,88.947960 252.964981,98.299675 
	C254.133026,107.858604 254.916702,117.464211 256.059021,127.026642 
	C257.254700,137.035553 258.706787,147.013596 259.989075,157.012527 
	C260.776703,163.154388 261.404144,169.316849 262.195984,175.458145 
	C263.422516,184.971161 264.796478,194.465500 265.976898,203.984024 
	C266.820557,210.786758 267.352478,217.628189 268.197632,224.430725 
	C269.380127,233.948578 270.803589,243.436554 271.977264,252.955414 
	C273.094940,262.020050 273.937714,271.118652 275.059753,280.182709 
	C276.277832,290.022552 277.737396,299.832367 278.982697,309.669067 
	C280.108398,318.561218 281.034821,327.478516 282.144745,336.372803 
	C283.373199,346.216766 284.715271,356.046539 285.998322,365.883728 
	C286.881989,372.658752 287.847168,379.425079 288.598755,386.214905 
	C289.497620,394.335022 290.589874,402.462799 290.872528,410.612427 
	C291.079742,416.587372 283.905426,422.999908 278.106110,422.999908 
	C200.134201,423.000000 122.162262,423.034546 44.190407,422.972198 
	C27.673538,422.958984 15.540730,415.009796 7.074792,401.206696 
	C4.707836,397.347595 3.006611,393.080139 1.000003,389.000000 
	C1.000000,271.312439 1.000000,153.624878 1.361484,35.361191 
	C2.077454,34.064457 2.549308,33.377735 2.768598,32.618099 
	C5.499704,23.157373 10.491514,15.134037 18.840345,9.817532 
	C24.241619,6.378020 30.258808,3.905717 36.000000,1.000000 
M87.002647,218.627533 
	C85.139160,228.132187 83.181793,237.619675 81.439774,247.146545 
	C79.839279,255.899384 78.034409,264.650513 77.141060,273.485474 
	C76.453308,280.287140 81.783775,286.270508 87.873398,286.997803 
	C96.555634,288.034668 103.351006,284.163086 104.933495,276.714172 
	C108.118027,261.724274 111.121162,246.692169 113.885666,231.619980 
	C114.393158,228.853119 115.218971,227.948090 117.893936,227.965012 
	C130.392609,228.044189 142.893921,227.905396 155.388306,228.149933 
	C156.612991,228.173889 158.592621,230.114395 158.877792,231.451859 
	C162.073303,246.438980 164.732529,261.544189 168.123535,276.484253 
	C169.794357,283.845428 174.809509,287.932434 184.911041,286.993286 
	C191.185547,286.409882 196.624298,280.326141 195.842438,273.203613 
	C194.822113,263.908875 192.742508,254.724838 190.993759,245.516891 
	C187.016159,224.572952 183.042252,203.627747 178.916260,182.712753 
	C175.044342,163.085724 170.850540,143.521667 167.057175,123.879913 
	C165.366180,115.124107 161.845459,110.227730 152.733047,109.157059 
	C142.599808,107.966461 132.193954,107.353912 122.070976,108.281517 
	C110.711365,109.322456 107.724869,114.870399 105.976822,125.295815 
	C105.336784,129.113083 104.464478,132.891495 103.693916,136.686768 
	C100.130241,154.239136 96.585762,171.795425 92.992203,189.341675 
	C91.050873,198.820511 89.024780,208.281982 87.002647,218.627533 
z"/>
<path fill="#000000" opacity="1.000000" stroke="none" 
	d="
M513.000000,128.000000 
	C513.000000,244.354233 513.000000,360.708466 512.630615,477.648254 
	C509.554352,488.659088 504.802490,497.900909 495.502747,503.843140 
	C489.975006,507.375153 483.854156,509.978882 478.000000,513.000000 
	C400.312439,513.000000 322.624878,513.000000 244.182526,512.717346 
	C251.674454,503.062927 259.952332,493.718353 268.160797,484.313202 
	C281.523560,469.002258 294.863708,453.671387 308.169861,438.311218 
	C317.765778,427.234070 321.325958,414.199890 319.881409,399.824615 
	C318.890137,389.959656 317.260010,380.160278 316.016113,370.318878 
	C314.891907,361.424683 313.975861,352.504120 312.836853,343.611938 
	C311.639038,334.261322 310.185364,324.943024 309.028412,315.587738 
	C307.886841,306.357056 307.071320,297.086151 305.939240,287.854187 
	C304.732117,278.010406 303.269043,268.198242 302.019165,258.359406 
	C301.237762,252.208069 300.727997,246.022247 299.946472,239.870941 
	C298.696411,230.032074 297.260864,220.216736 296.018036,210.377014 
	C294.894440,201.481308 294.003448,192.556076 292.864014,183.662552 
	C291.666229,174.313324 290.191010,164.999222 289.029541,155.645859 
	C287.883423,146.415863 287.113373,137.138672 285.933380,127.913521 
	C284.415955,116.050301 282.654419,104.218307 280.945923,92.000000 
	C283.147278,92.000000 284.957642,92.000000 286.767975,92.000000 
	C347.595215,92.000000 408.422455,92.029198 469.249634,91.979797 
	C484.760010,91.967201 496.404114,99.149834 504.906647,111.478294 
	C508.350159,116.471222 510.345612,122.462837 513.000000,128.000000 
M404.990814,346.506775 
	C406.292572,346.469360 408.035919,345.863464 408.829712,346.480042 
	C420.253387,355.353119 431.657990,364.258392 442.833466,373.440399 
	C449.117615,378.603607 459.765656,378.207001 464.360138,372.136536 
	C469.323517,365.578827 467.521698,355.861572 461.007935,350.939941 
	C449.454803,342.210785 438.169189,333.127563 426.566681,324.031799 
	C443.266113,304.036621 455.759399,282.501953 463.124939,258.446899 
	C465.634949,257.922882 467.826263,257.355560 470.052490,257.020569 
	C477.730743,255.865173 482.020538,250.714218 482.000000,242.550156 
	C481.981720,235.280762 477.392853,229.595261 470.142517,229.096069 
	C459.771210,228.381989 449.355530,228.273636 438.955963,228.023865 
	C433.365936,227.889587 427.770050,228.000000 422.515472,228.000000 
	C421.974548,221.667633 421.488586,215.960510 420.999176,210.253677 
	C420.554230,205.065735 413.330872,198.284332 407.337372,198.836838 
	C400.036438,199.509872 393.794586,203.630249 393.042267,210.053375 
	C392.359680,215.881149 392.028290,221.750046 391.536682,227.666000 
	C391.480103,227.718079 391.359497,227.926498 391.237976,227.927017 
	C383.076477,227.962021 374.912231,227.857559 366.754150,228.035843 
	C359.184662,228.201279 351.491608,227.909958 344.087189,229.182449 
	C333.618225,230.981567 330.305023,242.014755 334.457550,249.897308 
	C338.099487,256.810577 345.139313,257.438110 351.471466,258.186005 
	C359.638519,282.255768 370.995819,304.178314 387.257294,323.915253 
	C376.030273,333.138641 365.590393,342.635773 354.163513,350.741486 
	C347.788910,355.263397 346.089569,365.691437 350.435669,371.930847 
	C354.310577,377.493835 364.920776,378.981628 370.834320,374.616577 
	C374.894287,371.619720 378.632599,368.188446 382.532013,364.972351 
	C389.819885,358.961456 397.120331,352.965790 404.990814,346.506775 
z"/>
<path fill="#FFFFFF" opacity="1.000000" stroke="none" 
	d="
M513.000000,127.531342 
	C510.345612,122.462837 508.350159,116.471222 504.906647,111.478294 
	C496.404114,99.149834 484.760010,91.967201 469.249634,91.979797 
	C408.422455,92.029198 347.595215,92.000000 286.767975,92.000000 
	C284.957642,92.000000 283.147278,92.000000 280.945923,92.000000 
	C282.654419,104.218307 284.415955,116.050301 285.933380,127.913521 
	C287.113373,137.138672 287.883423,146.415863 289.029541,155.645859 
	C290.191010,164.999222 291.666229,174.313324 292.864014,183.662552 
	C294.003448,192.556076 294.894440,201.481308 296.018036,210.377014 
	C297.260864,220.216736 298.696411,230.032074 299.946472,239.870941 
	C300.727997,246.022247 301.237762,252.208069 302.019165,258.359406 
	C303.269043,268.198242 304.732117,278.010406 305.939240,287.854187 
	C307.071320,297.086151 307.886841,306.357056 309.028412,315.587738 
	C310.185364,324.943024 311.639038,334.261322 312.836853,343.611938 
	C313.975861,352.504120 314.891907,361.424683 316.016113,370.318878 
	C317.260010,380.160278 318.890137,389.959656 319.881409,399.824615 
	C321.325958,414.199890 317.765778,427.234070 308.169861,438.311218 
	C294.863708,453.671387 281.523560,469.002258 268.160797,484.313202 
	C259.952332,493.718353 251.674454,503.062927 243.713867,512.717346 
	C163.096649,513.000000 82.193306,513.000000 1.000000,513.000000 
	C1.000000,471.979553 1.000000,430.958435 1.000003,389.468658 
	C3.006611,393.080139 4.707836,397.347595 7.074792,401.206696 
	C15.540730,415.009796 27.673538,422.958984 44.190407,422.972198 
	C122.162262,423.034546 200.134201,423.000000 278.106110,422.999908 
	C283.905426,422.999908 291.079742,416.587372 290.872528,410.612427 
	C290.589874,402.462799 289.497620,394.335022 288.598755,386.214905 
	C287.847168,379.425079 286.881989,372.658752 285.998322,365.883728 
	C284.715271,356.046539 283.373199,346.216766 282.144745,336.372803 
	C281.034821,327.478516 280.108398,318.561218 278.982697,309.669067 
	C277.737396,299.832367 276.277832,290.022552 275.059753,280.182709 
	C273.937714,271.118652 273.094940,262.020050 271.977264,252.955414 
	C270.803589,243.436554 269.380127,233.948578 268.197632,224.430725 
	C267.352478,217.628189 266.820557,210.786758 265.976898,203.984024 
	C264.796478,194.465500 263.422516,184.971161 262.195984,175.458145 
	C261.404144,169.316849 260.776703,163.154388 259.989075,157.012527 
	C258.706787,147.013596 257.254700,137.035553 256.059021,127.026642 
	C254.916702,117.464211 254.133026,107.858604 252.964981,98.299675 
	C251.822281,88.947960 250.329422,79.639572 249.108902,70.296669 
	C247.990494,61.735477 246.557953,53.179028 246.094925,44.575760 
	C244.986725,23.985142 230.555222,5.836509 210.120148,1.372163 
	C310.897156,1.000000 411.794312,1.000000 513.000000,1.000000 
	C513.000000,43.020390 513.000000,85.041534 513.000000,127.531342 
M204.500000,453.000000 
	C195.060440,453.000000 185.620880,453.000000 176.159821,453.000000 
	C177.636398,477.517181 180.370132,498.039520 205.197586,508.897644 
	C222.045715,490.366943 238.863419,471.869690 256.019745,453.000000 
	C238.756622,453.000000 222.128311,453.000000 204.500000,453.000000 
z"/>
<path fill="#FFFFFF" opacity="1.000000" stroke="none" 
	d="
M478.468658,513.000000 
	C483.854156,509.978882 489.975006,507.375153 495.502747,503.843140 
	C504.802490,497.900909 509.554352,488.659088 512.630615,478.116882 
	C513.000000,489.593262 513.000000,501.186523 513.000000,513.000000 
	C501.646729,513.000000 490.292023,513.000000 478.468658,513.000000 
z"/>
<path fill="#FFFFFF" opacity="1.000000" stroke="none" 
	d="
M35.531342,1.000000 
	C30.258808,3.905717 24.241619,6.378020 18.840345,9.817532 
	C10.491514,15.134037 5.499704,23.157373 2.768598,32.618099 
	C2.549308,33.377735 2.077454,34.064457 1.361484,34.892532 
	C1.000000,23.739021 1.000000,12.478042 1.000000,1.000000 
	C12.353307,1.000000 23.707994,1.000000 35.531342,1.000000 
z"/>
<path fill="#FFFFFF" opacity="1.000000" stroke="none" 
	d="
M87.019791,218.189423 
	C89.024780,208.281982 91.050873,198.820511 92.992203,189.341675 
	C96.585762,171.795425 100.130241,154.239136 103.693916,136.686768 
	C104.464478,132.891495 105.336784,129.113083 105.976822,125.295815 
	C107.724869,114.870399 110.711365,109.322456 122.070976,108.281517 
	C132.193954,107.353912 142.599808,107.966461 152.733047,109.157059 
	C161.845459,110.227730 165.366180,115.124107 167.057175,123.879913 
	C170.850540,143.521667 175.044342,163.085724 178.916260,182.712753 
	C183.042252,203.627747 187.016159,224.572952 190.993759,245.516891 
	C192.742508,254.724838 194.822113,263.908875 195.842438,273.203613 
	C196.624298,280.326141 191.185547,286.409882 184.911041,286.993286 
	C174.809509,287.932434 169.794357,283.845428 168.123535,276.484253 
	C164.732529,261.544189 162.073303,246.438980 158.877792,231.451859 
	C158.592621,230.114395 156.612991,228.173889 155.388306,228.149933 
	C142.893921,227.905396 130.392609,228.044189 117.893936,227.965012 
	C115.218971,227.948090 114.393158,228.853119 113.885666,231.619980 
	C111.121162,246.692169 108.118027,261.724274 104.933495,276.714172 
	C103.351006,284.163086 96.555634,288.034668 87.873398,286.997803 
	C81.783775,286.270508 76.453308,280.287140 77.141060,273.485474 
	C78.034409,264.650513 79.839279,255.899384 81.439774,247.146545 
	C83.181793,237.619675 85.139160,228.132187 87.019791,218.189423 
M127.002655,165.627533 
	C124.962105,176.304611 122.921555,186.981689 120.858589,197.776031 
	C131.650513,197.776031 141.765930,197.776031 151.992050,197.776031 
	C151.992050,196.891571 152.103058,196.208969 151.975906,195.574066 
	C148.331406,177.376923 144.564407,159.203339 141.090683,140.973862 
	C140.475952,137.747925 138.634033,138.015213 136.455368,137.992386 
	C134.220016,137.968979 132.435593,137.857132 131.896500,141.063202 
	C130.560745,149.007004 128.691727,156.861145 127.002655,165.627533 
z"/>
<path fill="#FFFFFF" opacity="1.000000" stroke="none" 
	d="
M404.703186,346.735291 
	C397.120331,352.965790 389.819885,358.961456 382.532013,364.972351 
	C378.632599,368.188446 374.894287,371.619720 370.834320,374.616577 
	C364.920776,378.981628 354.310577,377.493835 350.435669,371.930847 
	C346.089569,365.691437 347.788910,355.263397 354.163513,350.741486 
	C365.590393,342.635773 376.030273,333.138641 387.257294,323.915253 
	C370.995819,304.178314 359.638519,282.255768 351.471466,258.186005 
	C345.139313,257.438110 338.099487,256.810577 334.457550,249.897308 
	C330.305023,242.014755 333.618225,230.981567 344.087189,229.182449 
	C351.491608,227.909958 359.184662,228.201279 366.754150,228.035843 
	C374.912231,227.857559 383.076477,227.962021 391.237976,227.927017 
	C391.359497,227.926498 391.480103,227.718079 391.536682,227.666000 
	C392.028290,221.750046 392.359680,215.881149 393.042267,210.053375 
	C393.794586,203.630249 400.036438,199.509872 407.337372,198.836838 
	C413.330872,198.284332 420.554230,205.065735 420.999176,210.253677 
	C421.488586,215.960510 421.974548,221.667633 422.515472,228.000000 
	C427.770050,228.000000 433.365936,227.889587 438.955963,228.023865 
	C449.355530,228.273636 459.771210,228.381989 470.142517,229.096069 
	C477.392853,229.595261 481.981720,235.280762 482.000000,242.550156 
	C482.020538,250.714218 477.730743,255.865173 470.052490,257.020569 
	C467.826263,257.355560 465.634949,257.922882 463.124939,258.446899 
	C455.759399,282.501953 443.266113,304.036621 426.566681,324.031799 
	C438.169189,333.127563 449.454803,342.210785 461.007935,350.939941 
	C467.521698,355.861572 469.323517,365.578827 464.360138,372.136536 
	C459.765656,378.207001 449.117615,378.603607 442.833466,373.440399 
	C431.657990,364.258392 420.253387,355.353119 408.829712,346.480042 
	C408.035919,345.863464 406.292572,346.469360 404.703186,346.735291 
M424.416046,258.000000 
	C410.342773,258.000000 396.269470,258.000000 381.790802,258.000000 
	C388.084900,274.364777 396.313232,288.876770 407.027069,302.517059 
	C418.001984,288.825989 426.896881,274.488770 433.108704,258.000000 
	C430.298950,258.000000 427.840546,258.000000 424.416046,258.000000 
z"/>
<path fill="#000000" opacity="1.000000" stroke="none" 
	d="
M205.000000,453.000000 
	C222.128311,453.000000 238.756622,453.000000 256.019745,453.000000 
	C238.863419,471.869690 222.045715,490.366943 205.197586,508.897644 
	C180.370132,498.039520 177.636398,477.517181 176.159821,453.000000 
	C185.620880,453.000000 195.060440,453.000000 205.000000,453.000000 
z"/>
<path fill="#000000" opacity="1.000000" stroke="none" 
	d="
M127.019806,165.189423 
	C128.691727,156.861145 130.560745,149.007004 131.896500,141.063202 
	C132.435593,137.857132 134.220016,137.968979 136.455368,137.992386 
	C138.634033,138.015213 140.475952,137.747925 141.090683,140.973862 
	C144.564407,159.203339 148.331406,177.376923 151.975906,195.574066 
	C152.103058,196.208969 151.992050,196.891571 151.992050,197.776031 
	C141.765930,197.776031 131.650513,197.776031 120.858589,197.776031 
	C122.921555,186.981689 124.962105,176.304611 127.019806,165.189423 
z"/>
<path fill="#000000" opacity="1.000000" stroke="none" 
	d="
M424.899109,258.000000 
	C427.840546,258.000000 430.298950,258.000000 433.108704,258.000000 
	C426.896881,274.488770 418.001984,288.825989 407.027069,302.517059 
	C396.313232,288.876770 388.084900,274.364777 381.790802,258.000000 
	C396.269470,258.000000 410.342773,258.000000 424.899109,258.000000 
z"/>
</svg>