<svg height="512" viewBox="0 0 60 60" width="512" xmlns="http://www.w3.org/2000/svg"><g id="031---UX-Vs-UI"><path id="Path" d="m30.225 25.919c.3408684.66586 1.0269669 1.0837036 1.775 1.081h2.648c.644695-.0003881 1.249381-.3126043 1.623-.838l5.223-7.362 5.238 7.364c.3750419.5240214.9795978.8352336 1.624.836h2.644c.7482053-.0017968 1.4328348-.4210668 1.7744979-1.0867098.3416631-.6656431.2832128-1.4663231-.1514979-2.0752902l-7.349-10.338 7.354-10.339c.4346525-.60968164.4923507-1.41107996.1495189-2.07673813-.3428319-.66565816-1.0287636-1.08406703-1.7775189-1.08426187h-2.644c-.644695.0003881-1.249381.31260428-1.623.838l-5.227 7.362-5.238-7.361c-.3743907-.52515672-.9790536-.83754108-1.624-.839h-2.644c-.7482053.00179682-1.4328348.42106678-1.7744979 1.08670982-.3416631.66564305-.2832128 1.46632305.1514979 2.07529018l.927 1.3c.3233462.44109047.9410621.540596 1.3865648.2233565s.5535078-.93352609.2424352-1.3833565l-.933-1.302h2.642l5.238 7.364c.3733936.52597658.9784619.8384685 1.6235.8384685s1.2501064-.31249192 1.6235-.8384685l5.229-7.364h2.644l-7.355 10.34c-.4934886.6953401-.4934886 1.6266599 0 2.322l7.355 10.338h-2.642l-5.238-7.364c-.3733936-.5259766-.9784619-.8384685-1.6235-.8384685s-1.2501064.3124919-1.6235.8384685l-5.229 7.364h-2.644l7.355-10.34c.4934886-.6953401.4934886-1.6266599 0-2.322l-4.375-6.149c-.2041717-.29913792-.5541285-.4645018-.9148674-.4322991s-.675872.25693831-.8238303.58751042c-.1479582.33057211-.1056139.71530832.1106977 1.00578868l4.374 6.15-7.353 10.339c-.4368208.6102391-.4940157 1.4140591-.148 2.08z"/><path id="Path" d="m12 0h-3c-1.1045695 0-2 .8954305-2 2v15c.00400096 2.7650948 1.14831937 5.4061079 3.163 7.3 1.8460268 1.7421797 4.2907075 2.7087397 6.829 2.7.2226667 0 .4473333-.007.674-.021 5.3305462-.4454713 9.407738-4.9393806 9.334-10.288v-6.691c0-.55228475-.4477153-1-1-1s-1 .44771525-1 1v6.691c.075702 4.29508-3.1845981 7.9166165-7.464 8.291-2.2098459.1483931-4.382323-.6259896-6.0000557-2.1387289-1.61773279-1.5127394-2.53593771-3.6284484-2.5359443-5.8432711v-15h3v14.829c-.0276315 2.6157922 1.9170262 4.8335808 4.514 5.148 1.4040669.1371246 2.8007242-.3252751 3.8455656-1.2731745 1.0448415-.9478994 1.640625-2.2930786 1.6404344-3.7038255v-15h3v4c0 .55228475.4477153 1 1 1s1-.44771525 1-1v-4c0-1.1045695-.8954305-2-2-2h-3c-1.1045695 0-2 .8954305-2 2v15c.0002933.8480282-.3583377 1.6565658-.9871539 2.2255492-.6288163.5689834-1.4690686.8452537-2.3128461.7604508-1.5720403-.2122944-2.7341114-1.5710567-2.7-3.157v-14.829c0-.53043298-.2107137-1.0391408-.5857864-1.41421356-.3750728-.37507276-.8837806-.58578644-1.4142136-.58578644z"/><path id="Path" d="m25 33h-3c-1.1045695 0-2 .8954305-2 2v15c.0002933.8480282-.3583377 1.6565658-.9871539 2.2255492-.6288163.5689834-1.4690686.8452537-2.3128461.7604508-1.5720403-.2122944-2.7341114-1.5710567-2.7-3.157v-14.829c0-1.1045695-.8954305-2-2-2h-3c-1.1045695 0-2 .8954305-2 2v15c.00400096 2.7650948 1.14831937 5.4061079 3.163 7.3 1.8460268 1.7421797 4.2907075 2.7087397 6.829 2.7.2226667 0 .4473333-.007.674-.021 5.3305462-.4454713 9.407738-4.9393806 9.334-10.288v-6.691c0-.5522847-.4477153-1-1-1s-1 .4477153-1 1v6.691c.075702 4.29508-3.1845981 7.9166165-7.464 8.291-2.2098459.1483931-4.382323-.6259896-6.0000557-2.1387289-1.61773279-1.5127394-2.53593771-3.6284484-2.5359443-5.8432711v-15h3v14.829c-.0276315 2.6157922 1.9170262 4.8335808 4.514 5.148 1.4040669.1371246 2.8007242-.3252751 3.8455656-1.2731745 1.0448415-.9478994 1.640625-2.2930786 1.6404344-3.7038255v-15h3v4c0 .5522847.4477153 1 1 1s1-.4477153 1-1v-4c0-1.1045695-.8954305-2-2-2z"/><path id="Path" d="m51 33h-18c-1.1045695 0-2 .8954305-2 2v3c0 1.1045695.8954305 2 2 2h6v13h-6c-1.1045695 0-2 .8954305-2 2v3c0 1.1045695.8954305 2 2 2h18c1.1045695 0 2-.8954305 2-2v-3c0-1.1045695-.8954305-2-2-2h-6v-7c0-.5522847-.4477153-1-1-1s-1 .4477153-1 1v7c0 1.1045695.8954305 2 2 2h6v3h-18v-3h6c1.1045695 0 2-.8954305 2-2v-13c0-1.1045695-.8954305-2-2-2h-6v-3h18v3h-6c-1.1045695 0-2 .8954305-2 2v2c0 .5522847.4477153 1 1 1s1-.4477153 1-1v-2h6c1.1045695 0 2-.8954305 2-2v-3c0-1.1045695-.8954305-2-2-2z"/><path id="Path" d="m59 29h-58c-.55228475 0-1 .4477153-1 1s.44771525 1 1 1h58c.5522847 0 1-.4477153 1-1s-.4477153-1-1-1z"/></g></svg>